<svg xmlns="http://www.w3.org/2000/svg" xmlns:xlink="http://www.w3.org/1999/xlink" xmlns:serif="http://www.serif.com/" width="100%" height="100%" viewBox="0 0 24 14" xml:space="preserve" style="fill-rule:evenodd;clip-rule:evenodd;stroke-linejoin:round;stroke-miterlimit:2;"><path d="M23.004,6.025l-5.486,-5.486c-0.258,-0.258 -0.609,-0.403 -0.974,-0.403c-0.755,0 -1.377,0.621 -1.377,1.377c0,0.364 0.146,0.716 0.404,0.973l3.154,3.141l-16.749,0c-0.751,0 -1.371,0.62 -1.371,1.372c0,0.753 0.62,1.371 1.371,1.371l16.749,0l-3.154,3.141c-0.26,0.258 -0.406,0.609 -0.406,0.974c0,0.366 0.146,0.717 0.406,0.973c0.258,0.26 0.607,0.406 0.973,0.406c0.367,0 0.716,-0.146 0.974,-0.406l5.486,-5.486c0.125,-0.13 0.222,-0.284 0.288,-0.452c0.137,-0.333 0.137,-0.708 0,-1.043c-0.066,-0.168 -0.163,-0.322 -0.288,-0.452Z" style="fill-rule:nonzero;"></path></svg>