<svg xmlns="http://www.w3.org/2000/svg" width="1920" height="960" viewBox="0 0 1920 960" fill="none"><g clip-path="url(#clip0)"><path d="M1953.1 -4.0253C1953.1 45.8135 1950.6 116.852 1916.27 193.476C1881.94 270.092 1815.77 352.337 1688.35 424.54C1573.9 489.397 1470.11 529.756 1383.33 563.497C1378.66 565.313 1374.04 567.109 1369.47 568.89C1280.01 603.737 1209.72 632.337 1166.25 675.621C1105.5 736.099 1063.29 790.066 1026.99 837.821C1023.41 842.524 1019.9 847.167 1016.43 851.75C984.645 893.703 956.689 930.607 923.301 962.732C849.273 1033.96 748.493 1081.73 520.043 1108.48C273.97 1137.29 103.686 1052.3 2.3807 984.06C-56.7419 944.236 -59.8056 871.998 -47.9534 786.021C-44.098 758.054 -38.6718 728.677 -33.1029 698.526C-30.1153 682.352 -27.0865 665.954 -24.2372 649.432C-16.0796 602.131 -9.39865 553.843 -9.39865 506.975C-9.39865 407.338 64.4827 349.988 164.353 303.125C204.891 284.103 249.669 266.828 295.469 249.159C306.073 245.068 316.732 240.956 327.405 236.796C384.168 214.675 441.339 191.208 492.845 162.411C530.811 141.185 560.971 112.828 588.102 82.255C601.668 66.9692 614.48 51.1254 627.131 35.3417C628.446 33.7008 629.759 32.0606 631.072 30.4218C642.386 16.2934 653.62 2.26514 665.209 -11.2316C716.927 -71.4619 775.653 -121.025 879.601 -121.025C1002.45 -121.025 1131.01 -135.38 1254.73 -151.482C1281.27 -154.937 1307.58 -158.472 1333.57 -161.962C1428.75 -174.746 1519.54 -186.94 1600.86 -192.443C1704.4 -199.45 1792.48 -195.598 1854.67 -168.364C1885.75 -154.753 1910.35 -135.308 1927.18 -108.467C1944.01 -81.6239 1953.1 -47.3443 1953.1 -4.0253Z" stroke="#BEC4C9"></path><path d="M2178.1 86.9747C2178.1 136.813 2175.6 207.852 2141.27 284.476C2106.94 361.092 2040.77 443.337 1913.35 515.54C1798.9 580.397 1695.11 620.756 1608.33 654.497C1603.66 656.313 1599.04 658.109 1594.47 659.89C1505.01 694.737 1434.72 723.337 1391.25 766.621C1330.5 827.099 1288.29 881.066 1251.99 928.821C1248.42 933.523 1244.9 938.166 1241.43 942.748C1209.65 984.702 1181.69 1021.61 1148.3 1053.73C1074.27 1124.96 973.493 1172.73 745.043 1199.48C622.004 1213.88 455.504 1197.22 307.073 1168.41C232.863 1154.01 163.183 1136.57 105.726 1118.47C48.2554 1100.37 3.05761 1081.61 -22.2207 1064.59C-51.7598 1044.69 -68.567 1009.97 -72.2052 967.787C-75.8432 925.602 -66.305 875.989 -43.1972 826.4C3.01526 727.227 103.47 628.211 261.121 588.985C376.784 560.207 434.114 497.041 484.519 425.399C493.77 412.251 502.786 398.82 511.885 385.266C552.368 324.96 594.499 262.199 666.291 210.907C706.068 182.488 740.354 153.208 772.653 125.286C774.883 123.358 777.104 121.436 779.316 119.522C809.149 93.708 837.463 69.2088 867.109 47.786C930.774 1.78071 1000.57 -30.0252 1104.6 -30.0252C1227.45 -30.0252 1356.01 -44.3797 1479.73 -60.4825C1506.27 -63.9369 1532.58 -67.4716 1558.57 -70.9625C1653.75 -83.7458 1744.54 -95.9401 1825.86 -101.443C1929.4 -108.45 2017.48 -104.598 2079.67 -77.3641C2110.75 -63.7534 2135.35 -44.3083 2152.18 -17.4673C2169.01 9.37608 2178.1 43.6557 2178.1 86.9747Z" stroke="#BEC4C9"></path><path d="M1975.5 -104.5C2071.99 -104.5 2149.52 -53.2107 2207.58 26.065C2265.64 105.348 2304.2 212.592 2322.72 324.382C2341.24 436.169 2339.71 552.459 2317.63 649.814C2295.54 747.189 2252.92 825.518 2189.35 861.54C2074.9 926.398 1971.11 966.756 1884.33 1000.5C1879.66 1002.31 1875.04 1004.11 1870.47 1005.89C1781.01 1040.74 1710.72 1069.34 1667.25 1112.62C1606.5 1173.1 1564.29 1227.07 1527.99 1274.82C1524.41 1279.52 1520.9 1284.17 1517.43 1288.75C1485.65 1330.7 1457.69 1367.61 1424.3 1399.73C1350.27 1470.96 1249.49 1518.73 1021.04 1545.48C774.97 1574.29 604.686 1489.3 503.381 1421.06C444.258 1381.24 441.194 1309 453.047 1223.02C456.902 1195.05 462.328 1165.68 467.897 1135.53C470.885 1119.35 473.913 1102.95 476.763 1086.43C484.92 1039.13 491.601 990.843 491.601 943.975C491.601 844.338 565.483 786.988 665.353 740.125C705.891 721.103 750.668 703.829 796.467 686.16C807.072 682.069 817.731 677.956 828.405 673.796C885.168 651.675 942.339 628.208 993.845 599.411C1031.81 578.185 1061.97 549.828 1089.1 519.255C1102.67 503.969 1115.48 488.126 1128.13 472.342C1129.45 470.701 1130.76 469.06 1132.07 467.421C1143.39 453.293 1154.62 439.265 1166.21 425.768C1217.93 365.538 1276.65 315.975 1380.6 315.975C1503.48 315.975 1573.09 289.683 1615.61 250.142C1658.12 210.613 1673.47 157.915 1688 105.371C1688.38 103.999 1688.76 102.628 1689.14 101.257C1703.28 50.0562 1717.28 -0.663643 1755.39 -38.9481C1794.5 -78.2356 1859.07 -104.5 1975.5 -104.5Z" stroke="#BEC4C9"></path><path d="M305.101 -198.025C305.101 -148.187 302.601 -77.148 268.27 -0.523621C233.943 76.0924 167.772 158.337 40.3549 230.54C-74.0996 295.397 -177.893 335.756 -264.669 369.497C-269.339 371.313 -273.959 373.109 -278.53 374.89C-367.99 409.737 -438.278 438.337 -481.751 481.621C-542.495 542.099 -584.715 596.066 -621.01 643.821C-624.585 648.524 -628.102 653.167 -631.574 657.75C-663.355 699.703 -691.311 736.607 -724.699 768.732C-798.727 839.96 -899.507 887.734 -1127.96 914.478C-1374.03 943.286 -1544.31 858.298 -1645.62 790.06C-1704.74 750.236 -1707.81 677.998 -1695.95 592.021C-1692.1 564.054 -1686.67 534.677 -1681.1 504.526C-1678.12 488.352 -1675.09 471.954 -1672.24 455.432C-1664.08 408.131 -1657.4 359.843 -1657.4 312.975C-1657.4 213.338 -1583.52 155.988 -1483.65 109.125C-1443.11 90.103 -1398.33 72.8282 -1352.53 55.1592C-1341.93 51.0683 -1331.27 46.9562 -1320.59 42.7964C-1263.83 20.6747 -1206.66 -2.79242 -1155.15 -31.5887C-1117.19 -52.8147 -1087.03 -81.1723 -1059.9 -111.745C-1046.33 -127.031 -1033.52 -142.875 -1020.87 -158.658C-1019.55 -160.299 -1018.24 -161.939 -1016.93 -163.578C-1005.61 -177.707 -994.38 -191.735 -982.791 -205.232C-931.073 -265.462 -872.347 -315.025 -768.399 -315.025C-645.55 -315.025 -516.99 -329.38 -393.272 -345.482C-366.732 -348.937 -340.416 -352.472 -314.426 -355.962C-219.252 -368.746 -128.463 -380.94 -47.1434 -386.443C56.3966 -393.45 144.484 -389.598 206.671 -362.364C237.751 -348.753 262.347 -329.308 279.178 -302.467C296.011 -275.624 305.101 -241.344 305.101 -198.025Z" stroke="#BEC4C9"></path><path d="M2553.47 44.9747C2553.47 94.8135 2550.97 165.852 2516.64 242.476C2482.32 319.092 2416.14 401.337 2288.73 473.54C2174.27 538.397 2070.48 578.756 1983.7 612.497C1979.03 614.313 1974.41 616.109 1969.84 617.89C1880.38 652.737 1810.09 681.337 1766.62 724.621C1705.88 785.099 1663.66 839.066 1627.36 886.821C1623.79 891.524 1620.27 896.166 1616.8 900.749C1585.02 942.702 1557.06 979.607 1523.67 1011.73C1449.65 1082.96 1348.86 1130.73 1120.42 1157.48C997.37 1171.88 787.117 1156.09 594.922 1128.16C498.832 1114.19 407.275 1097.19 333.409 1079.42C296.476 1070.53 263.973 1061.45 237.54 1052.46C211.218 1043.51 190.95 1034.66 178.324 1026.2C163.662 951.042 177.762 896.054 208.533 853.083C239.349 810.047 286.919 779.013 339.237 751.866C362.418 739.837 386.517 728.579 410.493 717.378C413.57 715.941 416.645 714.504 419.716 713.067C446.71 700.434 473.375 687.759 498.187 674.028C547.804 646.573 590.087 614.86 612.817 570.729C692.47 416.081 767.936 360.832 849.165 329.831C878.185 318.756 907.933 310.777 938.903 302.471C951.319 299.141 963.932 295.758 976.773 292.102C1021.62 279.332 1069.2 263.241 1120.72 234.436C1158.7 213.202 1187.15 183.391 1211.7 150.651C1227.02 130.228 1240.85 108.631 1254.53 87.2633C1262.76 74.4025 1270.94 61.6249 1279.37 49.2364C1301.8 16.2329 1325.97 -14.0766 1357.52 -36.1392C1389.06 -58.1934 1427.99 -72.0252 1479.97 -72.0252C1602.82 -72.0252 1731.38 -86.3797 1855.1 -102.482C1881.64 -105.937 1907.96 -109.472 1933.95 -112.962C2029.12 -125.746 2119.91 -137.94 2201.23 -143.443C2304.77 -150.45 2392.86 -146.598 2455.04 -119.364C2486.12 -105.753 2510.72 -86.3083 2527.55 -59.4673C2544.38 -32.6239 2553.47 1.65575 2553.47 44.9747Z" stroke="#BEC4C9"></path></g><defs><clipPath id="clip0"><rect width="1920" height="960" fill="white"></rect></clipPath></defs></svg>