<svg width="115" height="26" viewBox="0 0 115 26" fill="none" xmlns="http://www.w3.org/2000/svg">
<path d="M0.940979 25.8251H26.591V0.175049H0.940979V25.8251ZM21.654 10.5321H16.234V5.11205H21.654V10.5321ZM5.87698 5.11205H11.3V15.468H21.654V20.8881H5.87698V5.11205ZM43.294 0.175049C40.7574 0.175049 38.2778 0.927223 36.1688 2.33645C34.0597 3.74568 32.4159 5.74867 31.4452 8.09214C30.4745 10.4356 30.2206 13.0143 30.7154 15.5021C31.2103 17.9899 32.4317 20.2751 34.2253 22.0687C36.0189 23.8623 38.3041 25.0838 40.7919 25.5786C43.2798 26.0735 45.8584 25.8195 48.2019 24.8488C50.5454 23.8781 52.5483 22.2343 53.9576 20.1252C55.3668 18.0162 56.119 15.5366 56.119 13C56.115 9.59987 54.7625 6.34009 52.3582 3.93579C49.9539 1.5315 46.6942 0.179019 43.294 0.175049ZM43.294 20.8881C41.7339 20.8881 40.2088 20.4254 38.9116 19.5587C37.6145 18.6919 36.6034 17.46 36.0064 16.0187C35.4094 14.5773 35.2532 12.9913 35.5575 11.4612C35.8619 9.93106 36.6132 8.52555 37.7163 7.42239C38.8195 6.31923 40.225 5.56798 41.7551 5.26361C43.2852 4.95925 44.8712 5.11546 46.3126 5.71249C47.7539 6.30951 48.9859 7.32054 49.8526 8.61771C50.7194 9.91488 51.182 11.44 51.182 13C51.1788 15.0911 50.3467 17.0956 48.8681 18.5742C47.3895 20.0528 45.385 20.8849 43.294 20.8881ZM102.013 0.175049C99.4764 0.174851 96.9967 0.926855 94.8875 2.33596C92.7783 3.74507 91.1344 5.748 90.1635 8.09144C89.1927 10.4349 88.9385 13.0136 89.4333 15.5015C89.928 17.9893 91.1494 20.2746 92.943 22.0683C94.7365 23.862 97.0217 25.0836 99.5096 25.5785C101.997 26.0735 104.576 25.8196 106.92 24.8489C109.263 23.8782 111.266 22.2344 112.675 20.1253C114.085 18.0163 114.837 15.5366 114.837 13C114.833 9.60004 113.481 6.34041 111.077 3.93614C108.673 1.53188 105.413 0.179283 102.013 0.175049ZM102.013 20.8881C100.453 20.8882 98.9277 20.4258 97.6304 19.5592C96.3331 18.6925 95.3219 17.4607 94.7247 16.0193C94.1275 14.578 93.9712 12.992 94.2754 11.4618C94.5797 9.9316 95.3308 8.526 96.434 7.42274C97.5371 6.31949 98.9426 5.56813 100.473 5.26369C102.003 4.95925 103.589 5.1154 105.03 5.71239C106.472 6.30939 107.704 7.32041 108.571 8.61761C109.437 9.9148 109.9 11.4399 109.9 13C109.897 15.0909 109.065 17.0953 107.586 18.5738C106.108 20.0524 104.104 20.8846 102.013 20.8881ZM72.653 0.175049C70.1164 0.175049 67.6368 0.927223 65.5278 2.33645C63.4187 3.74568 61.7749 5.74867 60.8042 8.09214C59.8335 10.4356 59.5796 13.0143 60.0744 15.5021C60.5693 17.9899 61.7907 20.2751 63.5843 22.0687C65.3779 23.8623 67.6631 25.0838 70.1509 25.5786C72.6387 26.0735 75.2174 25.8195 77.5609 24.8488C79.9044 23.8781 81.9073 22.2343 83.3166 20.1252C84.7258 18.0162 85.478 15.5366 85.478 13C85.474 9.59987 84.1215 6.34009 81.7172 3.93579C79.3129 1.5315 76.0532 0.179019 72.653 0.175049ZM72.653 20.8881C71.1994 20.8888 69.774 20.4879 68.5339 19.7296C67.2939 18.9713 66.2874 17.8851 65.6257 16.5909C64.9641 15.2967 64.6728 13.8449 64.7842 12.3956C64.8956 10.9464 65.4052 9.55606 66.2569 8.37819C67.1086 7.20031 68.2692 6.28066 69.6105 5.72075C70.9519 5.16085 72.4219 4.98246 73.8582 5.20529C75.2946 5.42811 76.6414 6.04348 77.7501 6.98346C78.8588 7.92345 79.6862 9.1515 80.141 10.5321H72.653V15.468H80.141C79.6201 17.0434 78.6165 18.4147 77.2724 19.3876C75.9284 20.3604 74.3122 20.8854 72.653 20.8881Z" fill="#394149"/>
</svg>
