<svg width="150" height="16" viewBox="0 0 150 16" fill="none" xmlns="http://www.w3.org/2000/svg">
<g clip-path="url(#clip0)">
<path d="M74.693 14.874H69.573V1.18599H74.693V14.874ZM70.073 14.374H74.193V1.68599H70.073V14.374ZM81.817 14.874H76.8V1.18599H87.282C88.7836 1.06438 90.279 1.48596 91.496 2.37399C92.0199 2.8533 92.426 3.44717 92.6825 4.10928C92.9391 4.77139 93.0392 5.48382 92.975 6.19099C93.0498 7.41296 92.6609 8.61817 91.886 9.56599C90.969 10.618 89.443 11.16 87.351 11.179C86.824 11.193 82.875 11.179 81.82 11.179L81.817 14.874ZM77.297 14.374H81.317V10.674H81.568C81.619 10.674 86.746 10.69 87.339 10.674C89.288 10.657 90.689 10.174 91.508 9.23098C92.1978 8.37344 92.5404 7.28814 92.468 6.18998C92.5295 5.55635 92.4442 4.91708 92.2188 4.32173C91.9933 3.72638 91.6338 3.19095 91.168 2.75698C90.0396 1.94708 88.659 1.56691 87.275 1.68499H77.3L77.297 14.374ZM86.22 8.10398H81.283V4.37798H86.253C86.6053 4.3293 86.9642 4.37042 87.2963 4.49752C87.6285 4.62461 87.9232 4.83357 88.153 5.10498C88.3615 5.45193 88.4598 5.85397 88.435 6.25798C88.4538 6.63309 88.3727 7.00645 88.2 7.33998C87.9629 7.62587 87.6562 7.84594 87.3094 7.97904C86.9627 8.11214 86.5875 8.15379 86.22 8.09998V8.10398ZM81.783 7.60398H86.22C87.04 7.60398 87.548 7.43299 87.773 7.08099C87.8969 6.82514 87.953 6.54175 87.936 6.25798C87.9579 5.96004 87.8933 5.66212 87.75 5.39999L87.744 5.39098C87.506 5.04098 87.033 4.87798 86.253 4.87798H81.783V7.60398ZM102.1 15.076C97.61 15.076 94.93 13.961 93.909 11.668C93.7419 11.2251 93.6285 10.7638 93.571 10.294L93.527 10.006H98.869L98.904 10.216C98.9451 10.4292 99.0355 10.6299 99.168 10.802C99.379 11.057 100.083 11.485 102.419 11.485C105.227 11.485 105.227 10.992 105.227 10.727C105.227 10.28 104.902 10.127 102.612 9.88298L102.177 9.84198C101.315 9.76098 100.225 9.65799 99.727 9.61499C95.527 9.23499 93.652 7.92998 93.652 5.38498C93.652 2.71198 96.843 0.984985 101.782 0.984985C105.811 0.984985 108.407 2.04699 109.496 4.14399C109.754 4.63176 109.928 5.15998 110.009 5.70599L110.044 5.98698H104.696L104.674 5.76099C104.653 5.58437 104.578 5.41867 104.458 5.28698C104.258 5.01898 103.626 4.57598 101.664 4.57598C99.255 4.57598 98.923 4.88398 98.923 5.21598C98.923 5.65898 99.684 5.81598 102.123 6.07698C103.14 6.15998 104.775 6.32798 105.335 6.39598C108.856 6.77798 110.427 8.05099 110.427 10.525C110.428 12.6 108.983 15.076 102.1 15.076ZM94.111 10.506C94.1611 10.8358 94.2473 11.159 94.368 11.47C95.298 13.559 97.828 14.576 102.1 14.576C105.672 14.576 109.931 13.876 109.931 10.525C109.931 8.33199 108.541 7.24599 105.282 6.89299C104.722 6.82499 103.097 6.65799 102.082 6.57399C99.482 6.29199 98.425 6.14198 98.425 5.21598C98.425 4.25798 99.564 4.07598 101.666 4.07598C103.327 4.07598 104.4 4.37598 104.855 4.98098C104.979 5.13004 105.073 5.30193 105.131 5.48698H109.465C109.378 5.10023 109.24 4.72668 109.055 4.37598C108.055 2.45698 105.612 1.48499 101.784 1.48499C97.149 1.48499 94.154 3.01598 94.154 5.38498C94.154 7.64498 95.835 8.76099 99.773 9.11699C100.273 9.15999 101.362 9.26299 102.226 9.34499L102.664 9.38599C104.791 9.60999 105.729 9.74999 105.729 10.727C105.729 11.779 104.516 11.985 102.421 11.985C100.483 11.985 99.259 11.694 98.786 11.121C98.6402 10.9383 98.5302 10.7296 98.462 10.506H94.111ZM119.927 15.059C114.707 15.059 111.827 12.948 111.827 9.11398V1.18599H116.879V9.11398C116.879 10.429 118.056 11.183 120.107 11.183C122.067 11.183 123.284 10.396 123.284 9.13099V1.18599H128.284V9.53399C128.289 13.045 125.24 15.059 119.924 15.059H119.927ZM112.327 1.68599V9.11398C112.327 13.852 117.085 14.559 119.927 14.559C122.865 14.559 127.792 13.906 127.792 9.53399V1.68599H123.792V9.13099C123.792 10.681 122.348 11.683 120.115 11.683C117.781 11.683 116.387 10.723 116.387 9.11398V1.68599H112.327ZM149.472 14.874H144.704V8.69398L142 14.874H137.841L135.165 8.70599V14.874H130.38V1.18599H136.674L139.944 8.73299L143.372 1.18599H149.478L149.472 14.874ZM145.204 14.374H148.972V1.68599H143.69L139.928 9.96498L136.342 1.68599H130.876V14.374H134.661V6.29998L138.161 14.377H141.661L145.198 6.31199L145.204 14.374ZM5.054 1.43599H0.5V14.624H13.084V11.113H5.054V1.43599ZM22.276 1.13599C16.463 1.13599 13.406 3.89099 13.406 7.93599C13.406 12.506 16.615 14.824 22.276 14.824C28.508 14.824 31.129 12.136 31.129 7.93599C31.129 3.67099 28.172 1.13398 22.276 1.13398V1.13599ZM22.259 4.56298C22.6547 4.56112 23.0502 4.58417 23.443 4.63198L18.352 9.72298C18.1111 9.17807 17.9936 8.58662 18.008 7.99099C18.008 5.92199 19.05 4.56099 22.259 4.56099V4.56298ZM22.276 11.451C21.8947 11.4527 21.5137 11.4313 21.135 11.387L26.235 6.28698C26.4669 6.82288 26.5779 7.40332 26.56 7.98698C26.56 9.99998 25.6 11.449 22.276 11.449V11.451ZM40.152 9.65099H44.839C44.77 9.97625 44.6262 10.281 44.419 10.541C43.4473 11.3326 42.2072 11.7178 40.958 11.616C40.3292 11.6833 39.6934 11.6146 39.0935 11.4146C38.4936 11.2146 37.9436 10.8881 37.481 10.457C37.0071 9.76188 36.782 8.9271 36.842 8.08799C36.7653 7.20873 37.0101 6.3315 37.531 5.61898C38.186 4.87898 39.295 4.55999 40.925 4.55999C41.9621 4.47411 42.9979 4.74046 43.865 5.31599C44.1383 5.53306 44.3426 5.8249 44.453 6.15598H48.8C48.7684 5.61045 48.6372 5.07531 48.413 4.57698C47.372 2.45998 44.952 1.19999 40.837 1.19999C37.258 1.19999 34.856 2.29198 33.529 3.93898C32.6526 5.12835 32.2027 6.57842 32.252 8.05499C32.1953 9.56494 32.6336 11.0521 33.5 12.29C34.811 13.99 37.146 14.826 39.952 14.826C41.8175 14.9561 43.6703 14.4336 45.193 13.348L45.311 14.624H48.922V6.81199H40.152V9.65099ZM59.171 1.13298C53.359 1.13298 50.301 3.88798 50.301 7.93298C50.301 12.503 53.509 14.821 59.171 14.821C65.404 14.821 68.025 12.133 68.025 7.93298C68.025 3.67098 65.068 1.13398 59.171 1.13398V1.13298ZM59.155 4.55999C59.5403 4.55884 59.9253 4.58088 60.308 4.62598L55.237 9.69999C55.0036 9.16113 54.89 8.57804 54.904 7.99099C54.9 5.92199 55.946 4.56099 59.155 4.56099V4.55999ZM59.171 11.448C58.7796 11.4496 58.3885 11.4269 58 11.38L63.117 6.26199C63.3577 6.80501 63.4729 7.39531 63.454 7.98898C63.456 9.99998 62.5 11.449 59.171 11.449V11.448Z" fill="#394149"/>
</g>
<defs>
<clipPath id="clip0">
<rect width="150" height="15" fill="white" transform="translate(0 0.5)"/>
</clipPath>
</defs>
</svg>
