<svg width="83" height="33" viewBox="0 0 83 33" fill="none" xmlns="http://www.w3.org/2000/svg">
<path d="M11.5586 20.9385C11.5228 21.0745 11.4834 21.2321 11.4404 21.4111C11.4046 21.583 11.3867 21.7477 11.3867 21.9053C11.3867 22.0485 11.4082 22.1702 11.4512 22.2705C11.4941 22.3708 11.5872 22.4209 11.7305 22.4209C11.9238 22.4209 12.153 22.3529 12.418 22.2168C12.6901 22.0736 12.9801 21.8874 13.2881 21.6582C13.596 21.4219 13.9147 21.1533 14.2441 20.8525C14.5736 20.5446 14.8994 20.2295 15.2217 19.9072C15.5439 19.5778 15.8519 19.2484 16.1455 18.9189C16.4391 18.5895 16.7005 18.2816 16.9297 17.9951L17.3271 19.4238C16.8545 20.054 16.3675 20.6592 15.8662 21.2393C15.3649 21.8193 14.8529 22.3314 14.3301 22.7754C13.8145 23.2194 13.2952 23.5739 12.7725 23.8389C12.2497 24.1038 11.7305 24.2363 11.2148 24.2363C10.9141 24.2363 10.6562 24.1862 10.4414 24.0859C10.2337 23.9928 10.0654 23.8639 9.93652 23.6992C9.80762 23.5273 9.71094 23.334 9.64648 23.1191C9.58919 22.8971 9.56055 22.6644 9.56055 22.4209C9.56055 22.3278 9.56413 22.1953 9.57129 22.0234C9.57845 21.8516 9.58561 21.6761 9.59277 21.4971C9.6071 21.3109 9.61784 21.1426 9.625 20.9922C9.63932 20.8418 9.64648 20.7451 9.64648 20.7021L5.83301 20.9385L4.06055 20.96C3.75977 21.6117 3.46257 22.1882 3.16895 22.6895C3.04004 22.9043 2.90397 23.1156 2.76074 23.3232C2.61751 23.5309 2.47428 23.7171 2.33105 23.8818C2.18783 24.0394 2.0446 24.1647 1.90137 24.2578C1.75814 24.3581 1.61849 24.4082 1.48242 24.4082C1.26758 24.4082 1.09212 24.376 0.956055 24.3115C0.819987 24.2471 0.712565 24.1647 0.633789 24.0645C0.555013 23.9714 0.497721 23.8639 0.461914 23.7422C0.433268 23.6204 0.418945 23.5059 0.418945 23.3984C0.418945 23.2122 0.44401 23.0296 0.494141 22.8506C0.544271 22.6644 0.615885 22.4889 0.708984 22.3242L2.12695 19.9395C2.19141 19.8392 2.32031 19.5993 2.51367 19.2197C2.71419 18.8402 2.96842 18.3747 3.27637 17.8232C3.59147 17.2646 3.95312 16.6488 4.36133 15.9756C4.76953 15.3024 5.20996 14.6221 5.68262 13.9346C6.16243 13.2399 6.66732 12.5667 7.19727 11.915C7.73438 11.2633 8.28223 10.6868 8.84082 10.1855C9.40658 9.67708 9.97591 9.27246 10.5488 8.97168C11.1217 8.66374 11.6911 8.50977 12.2568 8.50977C12.7868 8.50977 13.306 8.67448 13.8145 9.00391C14.3301 9.33333 14.8206 9.87402 15.2861 10.626C15.3363 10.7262 15.3613 10.8122 15.3613 10.8838C15.3613 10.9769 15.3363 11.07 15.2861 11.1631C15.236 11.2562 15.168 11.3385 15.082 11.4102C15.0033 11.4818 14.9137 11.5391 14.8135 11.582C14.7132 11.625 14.6094 11.6465 14.502 11.6465C14.373 11.6465 14.2227 11.6178 14.0508 11.5605C13.8861 11.5033 13.7285 11.3815 13.5781 11.1953C13.3561 10.9375 13.1234 10.7513 12.8799 10.6367C12.6436 10.515 12.4072 10.4541 12.1709 10.4541C11.8343 10.4541 11.4906 10.5508 11.1396 10.7441C10.7887 10.9303 10.4342 11.1882 10.0762 11.5176C9.72526 11.8398 9.37435 12.2158 9.02344 12.6455C8.67253 13.068 8.33236 13.5156 8.00293 13.9883C7.6735 14.4609 7.35482 14.9443 7.04688 15.4385C6.73893 15.9326 6.44889 16.4053 6.17676 16.8564C5.90462 17.3076 5.65397 17.723 5.4248 18.1025C5.2028 18.4821 5.00586 18.8008 4.83398 19.0586H6.7998L10.1191 18.8115C10.1836 18.6683 10.2695 18.4749 10.377 18.2314C10.4844 17.9808 10.6025 17.7015 10.7314 17.3936C10.8675 17.0856 11.0143 16.7526 11.1719 16.3945C11.3294 16.0365 11.487 15.6784 11.6445 15.3203C11.8092 14.9551 11.9704 14.597 12.1279 14.2461C12.2855 13.888 12.4323 13.5586 12.5684 13.2578C12.6615 12.9857 12.7975 12.7923 12.9766 12.6777C13.1628 12.5632 13.3597 12.5059 13.5674 12.5059C13.6748 12.5059 13.7822 12.5238 13.8896 12.5596C13.9971 12.5882 14.0938 12.6383 14.1797 12.71C14.2728 12.7744 14.348 12.8604 14.4053 12.9678C14.4626 13.068 14.4948 13.1898 14.502 13.333C14.502 13.4691 14.4411 13.7018 14.3193 14.0312C14.2048 14.3607 14.0544 14.7474 13.8682 15.1914C13.6891 15.6354 13.485 16.1188 13.2559 16.6416C13.0339 17.1572 12.8118 17.6764 12.5898 18.1992C12.375 18.7148 12.1745 19.2126 11.9883 19.6924C11.8021 20.165 11.6589 20.5804 11.5586 20.9385ZM18.7559 23.6348C18.7559 23.291 18.8311 22.9401 18.9814 22.582C19.139 22.224 19.3359 21.8551 19.5723 21.4756C19.8086 21.096 20.0664 20.7129 20.3457 20.3262C20.625 19.9323 20.89 19.5312 21.1406 19.123C21.2122 19.0085 21.2695 18.901 21.3125 18.8008C21.3555 18.6934 21.377 18.5859 21.377 18.4785C21.377 18.3639 21.3447 18.2708 21.2803 18.1992C21.2158 18.1204 21.1227 18.0811 21.001 18.0811C20.7074 18.0811 20.4245 18.1455 20.1523 18.2744C19.8802 18.3962 19.6188 18.5609 19.3682 18.7686C19.1175 18.9691 18.8776 19.2018 18.6484 19.4668C18.4264 19.7318 18.2152 20.0075 18.0146 20.2939C17.8213 20.5732 17.6387 20.8525 17.4668 21.1318C17.2949 21.4111 17.1374 21.6654 16.9941 21.8945C16.8652 22.1309 16.7471 22.3887 16.6396 22.668C16.5322 22.9473 16.4141 23.2051 16.2852 23.4414C16.1634 23.6777 16.0238 23.8747 15.8662 24.0322C15.7087 24.1969 15.5117 24.2793 15.2754 24.2793C15.0176 24.2793 14.8135 24.1969 14.6631 24.0322C14.5127 23.8675 14.4375 23.6706 14.4375 23.4414C14.4375 23.3125 14.484 23.112 14.5771 22.8398C14.6702 22.5677 14.7884 22.2526 14.9316 21.8945C15.082 21.5293 15.2503 21.1426 15.4365 20.7344C15.6227 20.3262 15.8053 19.9215 15.9844 19.5205C16.1706 19.1195 16.3424 18.7435 16.5 18.3926C16.6647 18.0345 16.8008 17.7301 16.9082 17.4795C17.0371 17.1715 17.2054 16.9424 17.4131 16.792C17.6279 16.6416 17.8392 16.5664 18.0469 16.5664C18.2259 16.5664 18.3835 16.6344 18.5195 16.7705C18.6628 16.8994 18.7344 17.0892 18.7344 17.3398C18.7344 17.526 18.6914 17.7301 18.6055 17.9521C18.7988 17.7731 19.0065 17.5798 19.2285 17.3721C19.4505 17.1644 19.6904 16.9746 19.9482 16.8027C20.2132 16.6237 20.5068 16.4769 20.8291 16.3623C21.1514 16.2477 21.513 16.1904 21.9141 16.1904C22.1146 16.1904 22.3044 16.2155 22.4834 16.2656C22.6624 16.3158 22.82 16.3945 22.9561 16.502C23.0993 16.6094 23.2139 16.749 23.2998 16.9209C23.3929 17.0928 23.4466 17.3005 23.4609 17.5439C23.6257 17.3792 23.8047 17.2181 23.998 17.0605C24.1914 16.8958 24.3991 16.749 24.6211 16.6201C24.8503 16.4912 25.0973 16.3874 25.3623 16.3086C25.6273 16.2298 25.9209 16.1904 26.2432 16.1904C26.4795 16.1904 26.7051 16.2155 26.9199 16.2656C27.1348 16.3158 27.3245 16.4017 27.4893 16.5234C27.6611 16.638 27.7936 16.7884 27.8867 16.9746C27.987 17.1608 28.0371 17.39 28.0371 17.6621C28.0371 18.0918 27.9368 18.5 27.7363 18.8867C27.543 19.2734 27.3138 19.6279 27.0488 19.9502C26.9629 20.0576 26.8483 20.1937 26.7051 20.3584C26.5618 20.5231 26.4222 20.6986 26.2861 20.8848C26.1501 21.071 26.0319 21.2643 25.9316 21.4648C25.8314 21.6582 25.7812 21.8408 25.7812 22.0127C25.7812 22.1702 25.8278 22.2705 25.9209 22.3135C26.0212 22.3564 26.1501 22.3779 26.3076 22.3779C26.6084 22.3779 26.9342 22.2884 27.2852 22.1094C27.6361 21.9303 27.9762 21.7155 28.3057 21.4648C28.6423 21.207 28.9538 20.9421 29.2402 20.6699C29.5339 20.3906 29.7666 20.1579 29.9385 19.9717C29.9814 19.9215 30.0316 19.8857 30.0889 19.8643C30.1462 19.8428 30.2035 19.832 30.2607 19.832C30.3896 19.832 30.5042 19.8893 30.6045 20.0039C30.7119 20.1185 30.7656 20.2689 30.7656 20.4551C30.7656 20.5983 30.7227 20.7559 30.6367 20.9277C30.5508 21.0996 30.404 21.2679 30.1963 21.4326C29.8096 21.805 29.4121 22.1631 29.0039 22.5068C28.6029 22.8434 28.1947 23.1442 27.7793 23.4092C27.3711 23.667 26.9593 23.8747 26.5439 24.0322C26.1357 24.1898 25.7275 24.2686 25.3193 24.2686C24.7894 24.2686 24.3597 24.1432 24.0303 23.8926C23.708 23.6419 23.5469 23.2445 23.5469 22.7002C23.5469 22.3421 23.6149 22.0055 23.751 21.6904C23.887 21.3753 24.0553 21.0745 24.2559 20.7881C24.4564 20.4945 24.6676 20.2116 24.8896 19.9395C25.1117 19.6673 25.305 19.3952 25.4697 19.123C25.5413 19.0085 25.5986 18.901 25.6416 18.8008C25.6846 18.6934 25.7061 18.5859 25.7061 18.4785C25.7061 18.3639 25.6738 18.2708 25.6094 18.1992C25.5449 18.1204 25.4518 18.0811 25.3301 18.0811C25.0365 18.0811 24.7536 18.1455 24.4814 18.2744C24.2093 18.3962 23.9479 18.5609 23.6973 18.7686C23.4466 18.9691 23.2067 19.2018 22.9775 19.4668C22.7555 19.7318 22.5443 20.0075 22.3438 20.2939C22.1504 20.5732 21.9678 20.8525 21.7959 21.1318C21.624 21.4111 21.4665 21.6654 21.3232 21.8945C21.1943 22.1309 21.0762 22.3887 20.9688 22.668C20.8613 22.9473 20.7432 23.2051 20.6143 23.4414C20.4925 23.6777 20.3529 23.8747 20.1953 24.0322C20.0378 24.1969 19.8408 24.2793 19.6045 24.2793C19.5186 24.2793 19.4255 24.2614 19.3252 24.2256C19.2249 24.1969 19.1318 24.154 19.0459 24.0967C18.9671 24.0394 18.8991 23.9714 18.8418 23.8926C18.7917 23.8138 18.763 23.7279 18.7559 23.6348ZM35.9326 17.1895C36.1331 17.0319 36.3014 16.9137 36.4375 16.835C36.5807 16.749 36.7025 16.6882 36.8027 16.6523C36.903 16.6094 36.9925 16.5843 37.0713 16.5771C37.1572 16.57 37.2432 16.5664 37.3291 16.5664C37.4795 16.5664 37.5869 16.6237 37.6514 16.7383C37.7158 16.8457 37.748 16.9603 37.748 17.082C37.748 17.1823 37.7301 17.2754 37.6943 17.3613L35.2881 22.3779C35.6318 22.1201 36.0257 21.8695 36.4697 21.626C36.9209 21.3753 37.3506 21.1533 37.7588 20.96C38.1742 20.7594 38.5286 20.5983 38.8223 20.4766C39.123 20.3548 39.2949 20.2939 39.3379 20.2939C39.5169 20.2939 39.6745 20.362 39.8105 20.498C39.9466 20.6341 40.0146 20.806 40.0146 21.0137C40.0146 21.1999 39.943 21.3968 39.7998 21.6045C39.6637 21.8122 39.4202 22.0127 39.0693 22.2061C38.568 22.4854 38.1312 22.7253 37.7588 22.9258C37.3864 23.1191 37.057 23.2946 36.7705 23.4521C36.484 23.6097 36.2298 23.7529 36.0078 23.8818C35.7858 24.0107 35.5745 24.1432 35.374 24.2793C35.1807 24.4154 34.9873 24.5586 34.7939 24.709C34.6077 24.8665 34.4036 25.0492 34.1816 25.2568C34.0169 25.6865 33.8522 26.0983 33.6875 26.4922C33.5299 26.8861 33.3831 27.2334 33.2471 27.5342C33.1182 27.835 33.0107 28.0785 32.9248 28.2646C32.8389 28.4508 32.7923 28.5511 32.7852 28.5654C32.2051 29.7686 31.5677 30.3701 30.873 30.3701C30.5866 30.3701 30.3538 30.2734 30.1748 30.0801C29.9958 29.8939 29.9062 29.6396 29.9062 29.3174C29.9062 29.0166 29.9421 28.7158 30.0137 28.415C30.0924 28.1214 30.2249 27.7956 30.4111 27.4375C30.6045 27.0794 30.8551 26.6784 31.1631 26.2344C31.4782 25.7975 31.8721 25.2819 32.3447 24.6875L34.4932 20.3369C33.4189 21.6117 32.445 22.5856 31.5713 23.2588C30.6976 23.932 29.8812 24.2686 29.1221 24.2686C28.8786 24.2686 28.6709 24.2113 28.499 24.0967C28.3271 23.9893 28.2412 23.8066 28.2412 23.5488C28.2412 23.1908 28.3271 22.7861 28.499 22.335C28.5993 22.0915 28.6995 21.8695 28.7998 21.6689C28.9001 21.4613 29.0039 21.2572 29.1113 21.0566C29.2188 20.849 29.3298 20.627 29.4443 20.3906C29.5661 20.1543 29.695 19.8893 29.8311 19.5957C29.9743 19.2949 30.1283 18.9512 30.293 18.5645C30.4648 18.1706 30.6546 17.7122 30.8623 17.1895C31.0055 16.9102 31.1917 16.7096 31.4209 16.5879C31.6501 16.459 31.8721 16.3945 32.0869 16.3945C32.3089 16.3945 32.4951 16.4482 32.6455 16.5557C32.8031 16.6559 32.8818 16.792 32.8818 16.9639C32.8818 17.0498 32.8675 17.125 32.8389 17.1895L30.873 21.2822C30.7728 21.4899 30.7227 21.6546 30.7227 21.7764C30.7227 21.8838 30.7656 21.9375 30.8516 21.9375C30.9303 21.9375 31.0306 21.8981 31.1523 21.8193C31.2741 21.7406 31.3887 21.651 31.4961 21.5508L35.9326 17.1895ZM55.5908 11.2061C55.2471 13.1253 54.2767 15.6462 52.6797 18.7686C52.2428 19.6566 51.8525 20.4372 51.5088 21.1104C51.165 21.7835 50.8356 22.3493 50.5205 22.8076C50.2054 23.2588 49.8867 23.599 49.5645 23.8281C49.2493 24.0573 48.8984 24.1719 48.5117 24.1719C48.2467 24.1719 48.0212 24.1074 47.835 23.9785C47.6488 23.8496 47.4876 23.6025 47.3516 23.2373C47.2155 22.8649 47.1009 22.3457 47.0078 21.6797C46.9147 21.0137 46.8324 20.14 46.7607 19.0586L44.3652 22.5713C44.1504 22.8864 43.9463 23.1549 43.7529 23.377C43.5667 23.5918 43.3805 23.7673 43.1943 23.9033C43.0153 24.0322 42.8291 24.1253 42.6357 24.1826C42.4424 24.2399 42.2383 24.2686 42.0234 24.2686C41.7155 24.2686 41.4577 24.179 41.25 24C41.0495 23.821 40.9492 23.5596 40.9492 23.2158C40.9492 22.7074 40.9492 22.1488 40.9492 21.54C40.9564 20.9242 40.9743 20.2402 41.0029 19.4883C41.0316 18.7292 41.0745 17.8949 41.1318 16.9854C41.1963 16.0687 41.2858 15.0518 41.4004 13.9346C41.1497 14.2282 40.9385 14.4395 40.7666 14.5684C40.5947 14.6973 40.4551 14.7617 40.3477 14.7617C40.2546 14.7617 40.1865 14.7223 40.1436 14.6436C40.1006 14.5648 40.0791 14.4574 40.0791 14.3213C40.0791 14.085 40.14 13.7842 40.2617 13.4189C40.3835 13.0537 40.5589 12.6634 40.7881 12.248C41.0173 11.8327 41.3001 11.4209 41.6367 11.0127C41.9805 10.5973 42.3743 10.2285 42.8184 9.90625C42.9043 9.84896 43.001 9.82031 43.1084 9.82031C43.2373 9.82031 43.359 9.86686 43.4736 9.95996C43.5954 10.0531 43.6992 10.1748 43.7852 10.3252C43.8783 10.4756 43.9499 10.6439 44 10.8301C44.0573 11.0163 44.0859 11.1989 44.0859 11.3779C44.0859 11.5498 44.0752 11.693 44.0537 11.8076C44.0179 11.9652 43.9821 12.1048 43.9463 12.2266C43.9176 12.3483 43.8854 12.4951 43.8496 12.667C43.8138 12.8389 43.7744 13.0645 43.7314 13.3438C43.6885 13.6159 43.6383 13.9847 43.5811 14.4502C43.5094 15.0374 43.4521 15.6283 43.4092 16.2227C43.3734 16.8171 43.3411 17.4186 43.3125 18.0273C43.2839 18.6289 43.2552 19.2376 43.2266 19.8535C43.2051 20.4694 43.18 21.0924 43.1514 21.7227C43.3089 21.5293 43.4915 21.2822 43.6992 20.9814C43.9069 20.6735 44.1217 20.3512 44.3438 20.0146C44.5658 19.6709 44.7842 19.3271 44.999 18.9834C45.2139 18.6396 45.4072 18.3281 45.5791 18.0488C45.7581 17.7767 45.8978 17.5547 45.998 17.3828L46.1484 17.1143C46.4134 16.4411 46.682 15.7786 46.9541 15.127C47.2262 14.4753 47.4948 13.8271 47.7598 13.1826C48.0176 12.5524 48.2897 12.0654 48.5762 11.7217C48.8626 11.3779 49.1742 11.2061 49.5107 11.2061C49.7829 11.2061 50.0013 11.2562 50.166 11.3564C50.3307 11.4495 50.4131 11.5713 50.4131 11.7217C50.4131 11.9723 50.3486 12.2695 50.2197 12.6133C50.098 12.9499 49.9548 13.3115 49.79 13.6982C49.6253 14.085 49.4606 14.4824 49.2959 14.8906C49.1383 15.2988 49.0202 15.6891 48.9414 16.0615C48.9056 16.6846 48.877 17.2145 48.8555 17.6514C48.834 18.0882 48.8232 18.4893 48.8232 18.8545C48.8232 19.3057 48.8268 19.7783 48.834 20.2725C48.8411 20.7666 48.8734 21.2393 48.9307 21.6904C49.2171 21.2751 49.5143 20.8275 49.8223 20.3477C50.1374 19.8607 50.4489 19.3594 50.7568 18.8438C51.0648 18.3281 51.362 17.8018 51.6484 17.2646C51.9349 16.7204 52.1999 16.1797 52.4434 15.6426C52.6868 15.1055 52.8981 14.5791 53.0771 14.0635C53.2562 13.5407 53.3923 13.043 53.4854 12.5703L53.625 11.7646C53.625 11.736 53.6286 11.7074 53.6357 11.6787C53.6429 11.6501 53.6465 11.6214 53.6465 11.5928C53.6895 11.3779 53.736 11.1846 53.7861 11.0127C53.8363 10.8408 53.9007 10.6976 53.9795 10.583C54.0654 10.4613 54.1693 10.3682 54.291 10.3037C54.4199 10.2393 54.5775 10.207 54.7637 10.207C55.0716 10.207 55.2936 10.2393 55.4297 10.3037C55.5729 10.3682 55.6445 10.5114 55.6445 10.7334C55.6445 10.805 55.6374 10.8766 55.623 10.9482C55.6159 11.0199 55.6051 11.1058 55.5908 11.2061ZM58.0508 18.1348C57.7142 18.1348 57.3883 18.2207 57.0732 18.3926C56.7581 18.5645 56.4788 18.79 56.2354 19.0693C55.9919 19.3486 55.7985 19.6637 55.6553 20.0146C55.512 20.3584 55.4404 20.7057 55.4404 21.0566C55.4404 21.1999 55.4476 21.3503 55.4619 21.5078C55.4834 21.6582 55.5264 21.7979 55.5908 21.9268C55.6553 22.0557 55.7448 22.1631 55.8594 22.249C55.9811 22.335 56.1423 22.3779 56.3428 22.3779C56.5003 22.3779 56.6829 22.3099 56.8906 22.1738C57.1055 22.0306 57.3239 21.8516 57.5459 21.6367C57.7751 21.4147 57.9971 21.1748 58.2119 20.917C58.4268 20.652 58.6201 20.3942 58.792 20.1436C58.9639 19.8929 59.1035 19.6673 59.2109 19.4668C59.3184 19.2663 59.3721 19.1195 59.3721 19.0264C59.3721 18.8903 59.3255 18.7686 59.2324 18.6611C59.1393 18.5465 59.0247 18.4499 58.8887 18.3711C58.7526 18.2923 58.6058 18.235 58.4482 18.1992C58.2979 18.1562 58.1654 18.1348 58.0508 18.1348ZM65.4951 20.9062C65.3662 21.028 65.1943 21.1963 64.9795 21.4111C64.7646 21.626 64.5176 21.8587 64.2383 22.1094C63.9661 22.36 63.6725 22.6143 63.3574 22.8721C63.0495 23.1227 62.7308 23.3519 62.4014 23.5596C62.0791 23.7673 61.7604 23.9355 61.4453 24.0645C61.1302 24.2005 60.833 24.2686 60.5537 24.2686C60.3031 24.2686 60.0882 24.2148 59.9092 24.1074C59.7301 24 59.5798 23.8604 59.458 23.6885C59.3434 23.5166 59.2575 23.3232 59.2002 23.1084C59.1429 22.8864 59.1143 22.6608 59.1143 22.4316C59.1143 22.2812 59.125 22.1344 59.1465 21.9912C59.168 21.8408 59.2038 21.7012 59.2539 21.5723C59.0319 21.873 58.7777 22.1846 58.4912 22.5068C58.2119 22.8219 57.9076 23.112 57.5781 23.377C57.2559 23.6348 56.9157 23.846 56.5576 24.0107C56.2067 24.1826 55.8486 24.2686 55.4834 24.2686C55.2972 24.2686 55.0788 24.2292 54.8281 24.1504C54.5846 24.0788 54.3519 23.957 54.1299 23.7852C53.9079 23.6133 53.7217 23.3913 53.5713 23.1191C53.4209 22.847 53.3457 22.514 53.3457 22.1201C53.3457 21.8265 53.3887 21.4756 53.4746 21.0674C53.5677 20.6592 53.7038 20.2367 53.8828 19.7998C54.069 19.3558 54.3018 18.9189 54.5811 18.4893C54.8675 18.0596 55.2041 17.6764 55.5908 17.3398C55.9775 16.9961 56.418 16.7204 56.9121 16.5127C57.4062 16.2979 57.9577 16.1904 58.5664 16.1904C58.8815 16.1904 59.1572 16.2298 59.3936 16.3086C59.6299 16.3874 59.8304 16.4733 59.9951 16.5664C60.1813 16.681 60.346 16.8063 60.4893 16.9424C60.611 16.8779 60.7363 16.8171 60.8652 16.7598C60.9727 16.7096 61.0837 16.6667 61.1982 16.6309C61.32 16.5879 61.4238 16.5664 61.5098 16.5664C61.7819 16.5664 62.0039 16.6416 62.1758 16.792C62.3477 16.9424 62.4336 17.1071 62.4336 17.2861C62.4336 17.3363 62.43 17.3757 62.4229 17.4043C62.387 17.5404 62.3298 17.7122 62.251 17.9199C62.1794 18.1276 62.097 18.3604 62.0039 18.6182C61.9108 18.8688 61.8141 19.1338 61.7139 19.4131C61.6208 19.6852 61.5348 19.9538 61.4561 20.2188C61.3773 20.4837 61.3128 20.7344 61.2627 20.9707C61.2126 21.1999 61.1875 21.3968 61.1875 21.5615C61.1875 21.7764 61.2233 21.9554 61.2949 22.0986C61.3665 22.2347 61.4883 22.3027 61.6602 22.3027C61.7676 22.3027 61.8929 22.2705 62.0361 22.2061C62.1865 22.1344 62.3477 22.0413 62.5195 21.9268C62.6914 21.8122 62.8669 21.6833 63.0459 21.54C63.2321 21.3896 63.4111 21.2393 63.583 21.0889C63.984 20.7308 64.4102 20.3226 64.8613 19.8643C64.9759 19.7712 65.0869 19.7246 65.1943 19.7246C65.3376 19.7246 65.4557 19.7962 65.5488 19.9395C65.6491 20.0755 65.6992 20.2295 65.6992 20.4014C65.6992 20.6019 65.6312 20.7702 65.4951 20.9062ZM67.5791 18.0273C67.3141 18.543 67.0635 19.0479 66.8271 19.542C66.5908 20.029 66.3688 20.4801 66.1611 20.8955C66.0752 21.0674 65.9893 21.2679 65.9033 21.4971C65.8245 21.7191 65.7852 21.916 65.7852 22.0879C65.7852 22.1882 65.8066 22.2669 65.8496 22.3242C65.8997 22.3815 65.9785 22.4102 66.0859 22.4102C66.2363 22.4102 66.4261 22.3672 66.6553 22.2812C66.8844 22.1882 67.1315 22.07 67.3965 21.9268C67.6615 21.7764 67.9408 21.6081 68.2344 21.4219C68.528 21.2285 68.8145 21.0316 69.0938 20.8311C69.3802 20.6234 69.6523 20.4193 69.9102 20.2188C70.168 20.0111 70.3971 19.8213 70.5977 19.6494C70.7122 19.5706 70.8197 19.5312 70.9199 19.5312C71.0417 19.5312 71.1419 19.585 71.2207 19.6924C71.2995 19.7998 71.3389 19.9359 71.3389 20.1006C71.3389 20.2653 71.2995 20.4336 71.2207 20.6055C71.1419 20.7773 70.9987 20.9456 70.791 21.1104C70.3255 21.5329 69.8529 21.9339 69.373 22.3135C68.9004 22.693 68.4277 23.0296 67.9551 23.3232C67.4896 23.6097 67.0277 23.8389 66.5693 24.0107C66.111 24.1826 65.667 24.2686 65.2373 24.2686C64.9508 24.2686 64.7109 24.2292 64.5176 24.1504C64.3242 24.0788 64.1667 23.9785 64.0449 23.8496C63.9303 23.7135 63.848 23.5596 63.7979 23.3877C63.7477 23.2087 63.7227 23.0189 63.7227 22.8184C63.7227 22.4603 63.7835 22.0879 63.9053 21.7012C64.027 21.3145 64.1631 20.9671 64.3135 20.6592C64.5283 20.2152 64.7396 19.7747 64.9473 19.3379C65.1621 18.901 65.3698 18.4821 65.5703 18.0811H65.1084C64.7074 18.0811 64.4316 18.0166 64.2812 17.8877C64.1309 17.7588 64.0557 17.612 64.0557 17.4473C64.0557 17.3757 64.0771 17.2897 64.1201 17.1895C64.1702 17.082 64.2383 16.9854 64.3242 16.8994C64.4173 16.8063 64.5283 16.7275 64.6572 16.6631C64.7861 16.5986 64.9329 16.5664 65.0977 16.5664H66.2578L68.5244 12.0654C68.6676 11.7933 68.8431 11.5999 69.0508 11.4854C69.2656 11.3636 69.4876 11.3027 69.7168 11.3027C69.9316 11.3027 70.1286 11.36 70.3076 11.4746C70.4867 11.5892 70.5762 11.779 70.5762 12.0439C70.5762 12.18 70.5439 12.3197 70.4795 12.4629C70.4222 12.599 70.3434 12.7601 70.2432 12.9463C70.1787 13.068 70.0999 13.2148 70.0068 13.3867C69.9137 13.5514 69.8135 13.7305 69.7061 13.9238C69.6058 14.11 69.4984 14.307 69.3838 14.5146C69.2764 14.7223 69.1689 14.9229 69.0615 15.1162C68.818 15.5745 68.5602 16.0579 68.2881 16.5664H71.79C71.9619 16.5664 72.1195 16.5771 72.2627 16.5986C72.4059 16.613 72.5277 16.6488 72.6279 16.7061C72.7354 16.7562 72.8177 16.8278 72.875 16.9209C72.9323 17.014 72.9609 17.1393 72.9609 17.2969C72.9609 17.3757 72.9466 17.4544 72.918 17.5332C72.8965 17.612 72.8499 17.6836 72.7783 17.748C72.7139 17.8125 72.6208 17.8662 72.499 17.9092C72.3844 17.9521 72.234 17.9808 72.0479 17.9951L67.5791 18.0273ZM73.251 18.0273C72.986 18.543 72.7354 19.0479 72.499 19.542C72.2627 20.029 72.0407 20.4801 71.833 20.8955C71.7471 21.0674 71.6611 21.2679 71.5752 21.4971C71.4964 21.7191 71.457 21.916 71.457 22.0879C71.457 22.1882 71.4785 22.2669 71.5215 22.3242C71.5716 22.3815 71.6504 22.4102 71.7578 22.4102C71.9082 22.4102 72.098 22.3672 72.3271 22.2812C72.5563 22.1882 72.8034 22.07 73.0684 21.9268C73.3333 21.7764 73.6126 21.6081 73.9062 21.4219C74.1999 21.2285 74.4863 21.0316 74.7656 20.8311C75.0521 20.6234 75.3242 20.4193 75.582 20.2188C75.8398 20.0111 76.069 19.8213 76.2695 19.6494C76.3841 19.5706 76.4915 19.5312 76.5918 19.5312C76.7135 19.5312 76.8138 19.585 76.8926 19.6924C76.9714 19.7998 77.0107 19.9359 77.0107 20.1006C77.0107 20.2653 76.9714 20.4336 76.8926 20.6055C76.8138 20.7773 76.6706 20.9456 76.4629 21.1104C75.9974 21.5329 75.5247 21.9339 75.0449 22.3135C74.5723 22.693 74.0996 23.0296 73.627 23.3232C73.1615 23.6097 72.6995 23.8389 72.2412 24.0107C71.7829 24.1826 71.3389 24.2686 70.9092 24.2686C70.6227 24.2686 70.3828 24.2292 70.1895 24.1504C69.9961 24.0788 69.8385 23.9785 69.7168 23.8496C69.6022 23.7135 69.5199 23.5596 69.4697 23.3877C69.4196 23.2087 69.3945 23.0189 69.3945 22.8184C69.3945 22.4603 69.4554 22.0879 69.5771 21.7012C69.6989 21.3145 69.835 20.9671 69.9854 20.6592C70.2002 20.2152 70.4115 19.7747 70.6191 19.3379C70.834 18.901 71.0417 18.4821 71.2422 18.0811H70.7803C70.3792 18.0811 70.1035 18.0166 69.9531 17.8877C69.8027 17.7588 69.7275 17.612 69.7275 17.4473C69.7275 17.3757 69.749 17.2897 69.792 17.1895C69.8421 17.082 69.9102 16.9854 69.9961 16.8994C70.0892 16.8063 70.2002 16.7275 70.3291 16.6631C70.458 16.5986 70.6048 16.5664 70.7695 16.5664H71.9297L74.1963 12.0654C74.3395 11.7933 74.515 11.5999 74.7227 11.4854C74.9375 11.3636 75.1595 11.3027 75.3887 11.3027C75.6035 11.3027 75.8005 11.36 75.9795 11.4746C76.1585 11.5892 76.248 11.779 76.248 12.0439C76.248 12.18 76.2158 12.3197 76.1514 12.4629C76.0941 12.599 76.0153 12.7601 75.915 12.9463C75.8506 13.068 75.7718 13.2148 75.6787 13.3867C75.5856 13.5514 75.4854 13.7305 75.3779 13.9238C75.2777 14.11 75.1702 14.307 75.0557 14.5146C74.9482 14.7223 74.8408 14.9229 74.7334 15.1162C74.4899 15.5745 74.2321 16.0579 73.96 16.5664H77.4619C77.6338 16.5664 77.7913 16.5771 77.9346 16.5986C78.0778 16.613 78.1995 16.6488 78.2998 16.7061C78.4072 16.7562 78.4896 16.8278 78.5469 16.9209C78.6042 17.014 78.6328 17.1393 78.6328 17.2969C78.6328 17.3757 78.6185 17.4544 78.5898 17.5332C78.5684 17.612 78.5218 17.6836 78.4502 17.748C78.3857 17.8125 78.2926 17.8662 78.1709 17.9092C78.0563 17.9521 77.9059 17.9808 77.7197 17.9951L73.251 18.0273Z" fill="white"/>
<path d="M1.5 28C0.947715 28 0.5 28.4477 0.5 29C0.5 29.5523 0.947715 30 1.5 30V28ZM25.5 30C26.0523 30 26.5 29.5523 26.5 29C26.5 28.4477 26.0523 28 25.5 28V30ZM1.5 30H25.5V28H1.5V30Z" fill="white"/>
<path d="M37 28C36.4477 28 36 28.4477 36 29C36 29.5523 36.4477 30 37 30V28ZM75 30C75.5523 30 76 29.5523 76 29C76 28.4477 75.5523 28 75 28V30ZM37 30H75V28H37V30Z" fill="white"/>
</svg>
