<svg width="124" height="30" viewBox="0 0 124 30" fill="none" xmlns="http://www.w3.org/2000/svg">
<path d="M26.73 10.71C27.09 10.71 27.21 10.84 27.21 11.19V19.11H31.28C31.63 19.11 31.76 19.24 31.76 19.59V20.29C31.76 20.64 31.63 20.77 31.28 20.77H25.92C25.57 20.77 25.43 20.64 25.43 20.29V11.19C25.43 10.84 25.57 10.71 25.92 10.71H26.73Z" fill="#394149"/>
<path d="M35.31 14.2C35.31 11.89 36.77 10.5 39.31 10.5C41.85 10.5 43.31 11.89 43.31 14.2V17.28C43.31 19.59 41.84 20.98 39.31 20.98C36.78 20.98 35.31 19.59 35.31 17.28V14.2ZM41.63 14.2C41.63 12.9 40.82 12.2 39.36 12.2C37.9 12.2 37.1 12.91 37.1 14.2V17.3C37.1 18.61 37.9 19.3 39.36 19.3C40.82 19.3 41.63 18.58 41.63 17.3V14.2Z" fill="#394149"/>
<path d="M55.22 15.26C55.61 15.26 55.7 15.39 55.7 15.74V17.64C55.7106 18.0875 55.6209 18.5317 55.4375 18.9401C55.2541 19.3485 54.9816 19.7106 54.64 20C53.7917 20.6755 52.7221 21.0106 51.64 20.94C49.05 20.94 47.64 19.55 47.64 17.24V14.14C47.64 11.86 49.1 10.46 51.64 10.46C53.64 10.46 54.94 11.25 55.49 12.83C55.5208 12.8893 55.5373 12.9551 55.5382 13.0219C55.5391 13.0888 55.5244 13.1549 55.4953 13.2151C55.4662 13.2753 55.4234 13.3279 55.3704 13.3686C55.3174 13.4094 55.2557 13.4372 55.19 13.45L54.41 13.72C54.07 13.84 53.93 13.77 53.81 13.42C53.6444 12.9928 53.3411 12.6331 52.9481 12.3977C52.555 12.1622 52.0948 12.0645 51.64 12.12C50.17 12.12 49.37 12.83 49.37 14.12V17.3C49.37 18.61 50.18 19.3 51.64 19.3C53.1 19.3 54 18.63 54 17.65V16.91H51.83C51.47 16.91 51.34 16.77 51.34 16.42V15.74C51.34 15.39 51.47 15.26 51.83 15.26H55.22Z" fill="#394149"/>
<path d="M59.83 14.2C59.83 11.89 61.29 10.5 63.83 10.5C66.37 10.5 67.83 11.89 67.83 14.2V17.28C67.83 19.59 66.36 20.98 63.83 20.98C61.3 20.98 59.83 19.59 59.83 17.28V14.2ZM66.14 14.2C66.14 12.9 65.33 12.2 63.88 12.2C62.43 12.2 61.61 12.91 61.61 14.2V17.3C61.61 18.61 62.42 19.3 63.88 19.3C65.34 19.3 66.14 18.58 66.14 17.3V14.2Z" fill="#394149"/>
<path d="M72.54 11C72.54 10.78 72.61 10.71 72.83 10.71H73.29C73.51 10.71 73.56 10.78 73.56 11V20.48C73.56 20.7 73.56 20.77 73.29 20.77H72.83C72.61 20.77 72.54 20.7 72.54 20.48V11Z" fill="#394149"/>
<path d="M82.67 10.71C83.5028 10.71 84.3015 11.0408 84.8903 11.6296C85.4792 12.2185 85.81 13.0172 85.81 13.85C85.81 14.6827 85.4792 15.4814 84.8903 16.0703C84.3015 16.6591 83.5028 16.99 82.67 16.99H79.67V20.48C79.67 20.7 79.62 20.77 79.41 20.77H78.94C78.73 20.77 78.65 20.7 78.65 20.48V11C78.65 10.78 78.73 10.71 78.94 10.71H82.67ZM82.58 16C82.8663 16 83.1498 15.9436 83.4143 15.834C83.6788 15.7245 83.9191 15.5639 84.1215 15.3615C84.3239 15.159 84.4845 14.9187 84.5941 14.6542C84.7036 14.3897 84.76 14.1062 84.76 13.82C84.76 13.5337 84.7036 13.2502 84.5941 12.9857C84.4845 12.7212 84.3239 12.4809 84.1215 12.2785C83.9191 12.076 83.6788 11.9155 83.4143 11.8059C83.1498 11.6963 82.8663 11.64 82.58 11.64H79.58V16H82.58Z" fill="#394149"/>
<path d="M93.62 10.5099C94.3921 10.4247 95.171 10.5908 95.8412 10.9836C96.5114 11.3763 97.037 11.9747 97.34 12.6899C97.42 12.8499 97.34 12.98 97.18 13.06L96.74 13.2599C96.56 13.3299 96.49 13.32 96.38 13.13C96.1534 12.5991 95.7639 12.1541 95.2678 11.8593C94.7716 11.5645 94.1945 11.4351 93.62 11.49C91.93 11.49 91.01 12.16 91.01 13.36C91.0002 13.7267 91.1234 14.0846 91.3568 14.3676C91.5902 14.6507 91.9181 14.8397 92.28 14.9C92.8178 15.0754 93.3755 15.1829 93.94 15.22C94.6233 15.2564 95.2974 15.3946 95.94 15.63C96.4326 15.7858 96.8566 16.1065 97.1407 16.5381C97.4247 16.9696 97.5516 17.4858 97.5 17.9999C97.5 19.8699 96.14 20.9999 93.64 20.9999C92.82 21.0938 91.9926 20.9037 91.2957 20.4616C90.5988 20.0194 90.0744 19.3518 89.81 18.5699C89.7924 18.5343 89.7828 18.4952 89.782 18.4554C89.7813 18.4157 89.7893 18.3762 89.8055 18.3399C89.8218 18.3036 89.8458 18.2713 89.876 18.2454C89.9061 18.2195 89.9417 18.2006 89.98 18.1899L90.42 18.0299C90.4547 18.0158 90.4919 18.009 90.5293 18.01C90.5667 18.011 90.6035 18.0198 90.6374 18.0358C90.6713 18.0517 90.7014 18.0746 90.726 18.1029C90.7505 18.1311 90.7689 18.1642 90.78 18.2C91.0037 18.7649 91.4015 19.2439 91.9157 19.5675C92.43 19.8912 93.0339 20.0426 93.64 19.9999C95.53 19.9999 96.46 19.3399 96.46 17.9999C96.4776 17.6477 96.3697 17.3006 96.1554 17.0205C95.9412 16.7403 95.6345 16.5453 95.29 16.47C94.7726 16.3156 94.239 16.2216 93.7 16.1899L92.62 16.0499C92.282 15.9782 91.9482 15.8881 91.62 15.7799C91.2958 15.682 90.9936 15.5225 90.73 15.31C90.4647 15.0697 90.2556 14.7741 90.1173 14.444C89.9791 14.1139 89.9151 13.7575 89.93 13.4C90 11.65 91.31 10.5099 93.62 10.5099Z" fill="#394149"/>
<path d="M102.89 17.35C102.932 18.0571 103.243 18.7214 103.759 19.2071C104.275 19.6928 104.957 19.9633 105.665 19.9633C106.373 19.9633 107.055 19.6928 107.571 19.2071C108.087 18.7214 108.398 18.0571 108.44 17.35V11C108.44 10.78 108.51 10.71 108.73 10.71H109.19C109.41 10.71 109.48 10.78 109.48 11V17.34C109.48 19.61 108.14 20.98 105.67 20.98C103.2 20.98 101.86 19.61 101.86 17.34V11C101.86 10.78 101.93 10.71 102.14 10.71H102.61C102.82 10.71 102.89 10.78 102.89 11V17.35Z" fill="#394149"/>
<path d="M123.28 10.71C123.5 10.71 123.57 10.78 123.57 11V20.48C123.57 20.7 123.5 20.77 123.28 20.77H122.86C122.65 20.77 122.58 20.7 122.58 20.48V14.71C122.58 13.8704 122.637 13.0318 122.75 12.2H122.69C122.378 12.9607 122.013 13.6991 121.6 14.41L119.45 18.2C119.424 18.2657 119.378 18.322 119.319 18.3612C119.26 18.4005 119.191 18.421 119.12 18.42H118.84C118.768 18.4203 118.698 18.3997 118.637 18.3606C118.577 18.3216 118.529 18.2657 118.5 18.2L116.32 14.37C115.933 13.6692 115.599 12.9405 115.32 12.19H115.26C115.362 13.0295 115.416 13.8743 115.42 14.72V20.48C115.42 20.7 115.35 20.77 115.13 20.77H114.74C114.52 20.77 114.45 20.7 114.45 20.48V11C114.45 10.78 114.52 10.71 114.74 10.71H115.1C115.182 10.7023 115.265 10.7203 115.336 10.7615C115.408 10.8027 115.465 10.865 115.5 10.94L119 17.16L122.48 11C122.59 10.79 122.65 10.76 122.87 10.76L123.28 10.71Z" fill="#394149"/>
<path d="M8.94002 18.55V25.78C8.94002 26.0572 8.82992 26.323 8.63395 26.5189C8.43797 26.7149 8.17217 26.825 7.89502 26.825C7.61787 26.825 7.35207 26.7149 7.1561 26.5189C6.96012 26.323 6.85002 26.0572 6.85002 25.78V18.56C7.14098 18.7725 7.48985 18.8911 7.85002 18.9C8.24266 18.9112 8.62731 18.7877 8.94002 18.55ZM17.84 16.46C17.5748 16.46 17.3205 16.5654 17.1329 16.7529C16.9454 16.9404 16.84 17.1948 16.84 17.46V18.72C16.84 18.9972 16.9501 19.263 17.1461 19.4589C17.3421 19.6549 17.6079 19.765 17.885 19.765C18.1622 19.765 18.428 19.6549 18.624 19.4589C18.8199 19.263 18.93 18.9972 18.93 18.72V17.51C18.9378 17.3666 18.9146 17.2232 18.862 17.0896C18.8094 16.956 18.7287 16.8352 18.6253 16.7356C18.5218 16.636 18.3982 16.5598 18.2627 16.5123C18.1272 16.4647 17.983 16.4469 17.84 16.46ZM4.58002 21.29C4.22019 21.2792 3.87186 21.1608 3.58002 20.95V28.2C3.58002 28.4785 3.69065 28.7456 3.88756 28.9425C4.08447 29.1394 4.35154 29.25 4.63002 29.25C4.9085 29.25 5.17557 29.1394 5.37249 28.9425C5.5694 28.7456 5.68002 28.4785 5.68002 28.2V21C5.35348 21.2111 4.96819 21.3127 4.58002 21.29ZM14.58 14.29C14.4446 14.2832 14.3091 14.3041 14.182 14.3513C14.0548 14.3985 13.9386 14.4711 13.8404 14.5646C13.7421 14.6582 13.664 14.7707 13.6106 14.8954C13.5573 15.0201 13.5299 15.1544 13.53 15.29V20.86C13.53 21.1385 13.6406 21.4056 13.8376 21.6025C14.0345 21.7994 14.3015 21.91 14.58 21.91C14.8585 21.91 15.1256 21.7994 15.3225 21.6025C15.5194 21.4056 15.63 21.1385 15.63 20.86V15.36C15.638 15.2157 15.6146 15.0714 15.5614 14.937C15.5082 14.8026 15.4266 14.6813 15.322 14.5815C15.2175 14.4817 15.0925 14.4057 14.9558 14.3589C14.8191 14.312 14.6738 14.2953 14.53 14.31L14.58 14.29ZM11.26 16.43C10.8834 16.4274 10.5167 16.3087 10.21 16.09V23.36C10.21 23.6385 10.3206 23.9056 10.5176 24.1025C10.7145 24.2994 10.9815 24.41 11.26 24.41C11.5385 24.41 11.8056 24.2994 12.0025 24.1025C12.1994 23.9056 12.31 23.6385 12.31 23.36V16.1C11.9928 16.3363 11.6055 16.4595 11.21 16.45L11.26 16.43ZM2.31002 22V1.69001C2.30739 1.44244 2.20719 1.20592 2.03119 1.03179C1.85519 0.857661 1.6176 0.759996 1.37002 0.76001H1.15002C0.902442 0.759996 0.664853 0.857661 0.488853 1.03179C0.312854 1.20592 0.212656 1.44244 0.210022 1.69001V22C0.210022 22.2493 0.309058 22.4884 0.485342 22.6647C0.661626 22.841 0.900719 22.94 1.15002 22.94H1.37002C1.61933 22.94 1.85842 22.841 2.0347 22.6647C2.21099 22.4884 2.31002 22.2493 2.31002 22ZM4.69002 20.52H4.47002C4.22072 20.52 3.98163 20.421 3.80534 20.2447C3.62906 20.0684 3.53002 19.8293 3.53002 19.58V4.11001C3.53266 3.86245 3.63285 3.62591 3.80885 3.45179C3.98485 3.27766 4.22244 3.18 4.47002 3.18001H4.69002C4.9376 3.18 5.17519 3.27766 5.35119 3.45179C5.52719 3.62591 5.62739 3.86245 5.63002 4.11001V19.6C5.63002 19.8493 5.53099 20.0884 5.3547 20.2647C5.17842 20.441 4.93933 20.54 4.69002 20.54V20.52ZM8.00002 18.14H7.77002C7.52337 18.14 7.28682 18.042 7.11242 17.8676C6.93801 17.6932 6.84002 17.4567 6.84002 17.21V6.51001C6.8387 6.38704 6.86178 6.26503 6.90792 6.15104C6.95407 6.03705 7.02236 5.93335 7.10885 5.84593C7.19534 5.75851 7.29831 5.68911 7.4118 5.64175C7.52529 5.59439 7.64705 5.57 7.77002 5.57001H8.00002C8.24759 5.57265 8.48412 5.67284 8.65825 5.84884C8.83238 6.02484 8.93004 6.26243 8.93002 6.51001V17.21C8.93002 17.4567 8.83204 17.6932 8.65763 17.8676C8.48322 18.042 8.24667 18.14 8.00002 18.14ZM11.31 15.69H11.1C10.8524 15.69 10.6149 15.5924 10.4389 15.4182C10.2629 15.2441 10.1627 15.0076 10.16 14.76V9.00001C10.1518 8.87162 10.17 8.7429 10.2136 8.62184C10.2571 8.50077 10.3251 8.38994 10.4132 8.2962C10.5013 8.20245 10.6077 8.12779 10.7259 8.07685C10.844 8.0259 10.9714 7.99975 11.1 8.00001H11.32C11.5693 8.00001 11.8084 8.09905 11.9847 8.27533C12.161 8.45161 12.26 8.69071 12.26 8.94001V14.74C12.2613 14.8643 12.238 14.9876 12.1914 15.1028C12.1447 15.218 12.0757 15.3228 11.9883 15.4112C11.9008 15.4995 11.7968 15.5697 11.6821 15.6175C11.5674 15.6654 11.4443 15.69 11.32 15.69H11.31ZM14.63 13.54H14.41C14.1607 13.54 13.9216 13.441 13.7453 13.2647C13.5691 13.0884 13.47 12.8493 13.47 12.6V11.11C13.4727 10.8624 13.5729 10.6259 13.7489 10.4518C13.9249 10.2777 14.1624 10.18 14.41 10.18H14.63C14.8776 10.18 15.1152 10.2777 15.2912 10.4518C15.4672 10.6259 15.5674 10.8624 15.57 11.11V12.6C15.57 12.8476 15.4724 13.0852 15.2982 13.2612C15.1241 13.4372 14.8876 13.5374 14.64 13.54H14.63Z" fill="#394149"/>
</svg>
