<svg width="101" height="48" viewBox="0 0 101 48" fill="none" xmlns="http://www.w3.org/2000/svg">
<path d="M0.790039 28.79H3.79004V43.5H0.790039V28.79Z" fill="#394149"/>
<path d="M5.53003 38.46C5.52805 37.4034 5.83955 36.37 6.42511 35.4905C7.01068 34.611 7.84398 33.9251 8.81956 33.5193C9.79514 33.1136 10.8691 33.0065 11.9057 33.2114C12.9422 33.4163 13.8946 33.9241 14.6424 34.6705C15.3902 35.4169 15.8998 36.3684 16.1067 37.4045C16.3135 38.4407 16.2084 39.5149 15.8045 40.4912C15.4006 41.4675 14.7162 42.3021 13.8378 42.8893C12.9594 43.4765 11.9266 43.79 10.87 43.79C10.1674 43.798 9.47021 43.6657 8.81937 43.4008C8.16853 43.1359 7.5771 42.7438 7.07977 42.2474C6.58243 41.7509 6.18917 41.1603 5.92306 40.5099C5.65695 39.8596 5.52333 39.1626 5.53003 38.46ZM13.19 38.46C13.1782 38.0039 13.0322 37.5614 12.7702 37.1878C12.5082 36.8143 12.1419 36.5263 11.7171 36.3598C11.2922 36.1934 10.8278 36.1559 10.3818 36.2521C9.93574 36.3483 9.52799 36.5739 9.20951 36.9006C8.89102 37.2273 8.67595 37.6407 8.59119 38.089C8.50642 38.5373 8.55574 39.0007 8.73296 39.4211C8.91018 39.8416 9.20744 40.2004 9.58756 40.4528C9.96767 40.7051 10.4138 40.8398 10.87 40.84C11.1822 40.8487 11.4928 40.7927 11.7822 40.6754C12.0716 40.5581 12.3336 40.382 12.5516 40.1584C12.7696 39.9348 12.9389 39.6684 13.0487 39.3761C13.1586 39.0838 13.2067 38.7718 13.19 38.46Z" fill="#394149"/>
<path d="M28.27 33.42V43C28.27 46.39 25.62 47.82 22.94 47.82C21.9976 47.8901 21.0541 47.6995 20.2127 47.2691C19.3714 46.8387 18.6647 46.1852 18.17 45.38L20.75 43.89C20.9547 44.3026 21.2787 44.6443 21.6798 44.8708C22.081 45.0972 22.5409 45.198 23 45.16C23.3021 45.2103 23.6118 45.1906 23.9051 45.1024C24.1984 45.0141 24.4675 44.8597 24.6916 44.651C24.9158 44.4423 25.089 44.1849 25.198 43.8986C25.3069 43.6124 25.3487 43.3049 25.32 43V42.07C24.9673 42.5039 24.5173 42.8486 24.0065 43.0762C23.4957 43.3038 22.9385 43.4079 22.38 43.38C21.0221 43.38 19.7198 42.8405 18.7596 41.8804C17.7994 40.9202 17.26 39.6179 17.26 38.26C17.26 36.9021 17.7994 35.5998 18.7596 34.6396C19.7198 33.6794 21.0221 33.14 22.38 33.14C22.9382 33.1145 23.4946 33.2196 24.005 33.447C24.5154 33.6745 24.9657 34.0179 25.32 34.45V33.45L28.27 33.42ZM25.32 38.26C25.34 37.7736 25.214 37.2924 24.9583 36.8782C24.7026 36.464 24.3289 36.1358 23.8851 35.9357C23.4414 35.7356 22.948 35.6728 22.4683 35.7553C21.9886 35.8379 21.5445 36.062 21.1932 36.3989C20.8419 36.7358 20.5994 37.1701 20.4968 37.646C20.3943 38.1218 20.4364 38.6174 20.6178 39.0691C20.7991 39.5208 21.1115 39.908 21.5146 40.1808C21.9177 40.4536 22.3933 40.5996 22.88 40.6C23.1977 40.6225 23.5166 40.5781 23.8162 40.4698C24.1157 40.3615 24.3892 40.1917 24.6191 39.9712C24.849 39.7508 25.0301 39.4846 25.1508 39.1899C25.2716 38.8951 25.3292 38.5784 25.32 38.26Z" fill="#394149"/>
<path d="M30 38.46C29.998 37.4034 30.3095 36.37 30.8951 35.4905C31.4806 34.611 32.314 33.9251 33.2895 33.5193C34.2651 33.1136 35.3391 33.0065 36.3756 33.2114C37.4122 33.4163 38.3646 33.9241 39.1124 34.6705C39.8602 35.4169 40.3698 36.3684 40.5766 37.4045C40.7835 38.4407 40.6783 39.5149 40.2745 40.4912C39.8706 41.4675 39.1862 42.3021 38.3078 42.8893C37.4294 43.4765 36.3966 43.79 35.34 43.79C34.6374 43.798 33.9402 43.6657 33.2893 43.4008C32.6385 43.1359 32.0471 42.7438 31.5497 42.2474C31.0524 41.7509 30.6591 41.1603 30.393 40.5099C30.1269 39.8596 29.9933 39.1626 30 38.46ZM37.66 38.46C37.6482 38.0039 37.5022 37.5614 37.2402 37.1878C36.9782 36.8143 36.6119 36.5263 36.187 36.3598C35.7622 36.1934 35.2977 36.1559 34.8517 36.2521C34.4057 36.3483 33.998 36.5739 33.6795 36.9006C33.361 37.2273 33.1459 37.6407 33.0612 38.089C32.9764 38.5373 33.0257 39.0007 33.2029 39.4211C33.3802 39.8416 33.6774 40.2004 34.0575 40.4528C34.4376 40.7051 34.8837 40.8398 35.34 40.84C35.6505 40.8459 35.9589 40.7878 36.246 40.6692C36.533 40.5507 36.7925 40.3742 37.0083 40.1509C37.2242 39.9276 37.3916 39.6622 37.5003 39.3712C37.609 39.0803 37.6565 38.7701 37.64 38.46H37.66Z" fill="#394149"/>
<path d="M42.0699 30.72C42.0699 30.3601 42.1767 30.0082 42.3767 29.7089C42.5767 29.4096 42.8609 29.1763 43.1935 29.0386C43.526 28.9008 43.892 28.8648 44.245 28.935C44.5981 29.0052 44.9223 29.1786 45.1769 29.4331C45.4314 29.6876 45.6047 30.0119 45.675 30.365C45.7452 30.718 45.7092 31.0839 45.5714 31.4165C45.4337 31.7491 45.2004 32.0333 44.9011 32.2333C44.6018 32.4333 44.2499 32.54 43.8899 32.54C43.4081 32.5374 42.9467 32.3448 42.6059 32.0041C42.2652 31.6633 42.0726 31.2019 42.0699 30.72ZM42.3799 33.42H45.3799V43.5H42.3799V33.42Z" fill="#394149"/>
<path d="M58.46 38.46C58.4964 39.1263 58.4006 39.7933 58.1782 40.4224C57.9558 41.0515 57.6111 41.6305 57.1641 42.1259C56.717 42.6213 56.1764 43.0233 55.5733 43.3089C54.9702 43.5945 54.3166 43.7581 53.65 43.79C53.0904 43.8169 52.5318 43.7207 52.0134 43.5081C51.4951 43.2956 51.0297 42.972 50.65 42.56V47.56H47.65V33.42H50.65V34.37C51.0297 33.9581 51.4951 33.6344 52.0134 33.4219C52.5318 33.2094 53.0904 33.1132 53.65 33.14C54.3157 33.172 54.9684 33.3352 55.5708 33.6202C56.1732 33.9052 56.7134 34.3063 57.1604 34.8007C57.6073 35.295 57.9522 35.8727 58.1752 36.5007C58.3982 37.1287 58.495 37.7945 58.46 38.46ZM55.46 38.46C55.4481 37.9907 55.2988 37.5351 55.0306 37.1498C54.7624 36.7644 54.3871 36.4662 53.9511 36.292C53.5151 36.1179 53.0376 36.0754 52.5777 36.1699C52.1178 36.2644 51.6957 36.4918 51.3637 36.8237C51.0318 37.1557 50.8044 37.5778 50.7099 38.0377C50.6154 38.4976 50.6579 38.9751 50.832 39.4111C51.0062 39.8471 51.3044 40.2224 51.6898 40.4906C52.0751 40.7588 52.5307 40.9081 53 40.92C53.3276 40.9408 53.6558 40.8913 53.9626 40.7748C54.2694 40.6582 54.5478 40.4774 54.7789 40.2444C55.01 40.0113 55.1886 39.7315 55.3026 39.4238C55.4167 39.116 55.4635 38.7874 55.44 38.46H55.46Z" fill="#394149"/>
<path d="M67.8 40.48C67.8 42.8 65.8 43.79 63.6 43.79C62.7212 43.8678 61.8392 43.6808 61.0675 43.2531C60.2958 42.8254 59.6698 42.1765 59.27 41.39L61.89 39.9C61.9964 40.2638 62.224 40.5802 62.5351 40.7966C62.8462 41.0131 63.222 41.1166 63.6 41.09C64.33 41.09 64.69 40.86 64.69 40.46C64.69 39.35 59.69 39.94 59.69 36.46C59.69 34.26 61.55 33.15 63.69 33.15C64.4797 33.126 65.2614 33.3136 65.9542 33.6934C66.647 34.0732 67.2256 34.6313 67.63 35.31L65 36.69C64.8838 36.4259 64.6935 36.2012 64.4521 36.0432C64.2106 35.8852 63.9285 35.8007 63.64 35.8C63.12 35.8 62.8 36 62.8 36.37C62.84 37.52 67.8 36.75 67.8 40.48Z" fill="#394149"/>
<path d="M78.8399 33.42V43.5H75.8399V42.56C75.4909 42.9777 75.0481 43.3069 74.5475 43.5207C74.047 43.7344 73.503 43.8267 72.9599 43.79C70.9599 43.79 69.1899 42.34 69.1899 39.61V33.42H72.1899V39.17C72.1636 39.4151 72.1921 39.6629 72.2734 39.8956C72.3547 40.1282 72.4869 40.3398 72.6602 40.5151C72.8335 40.6903 73.0436 40.8247 73.2754 40.9086C73.5071 40.9925 73.7546 41.0237 73.9999 41C75.0999 41 75.8699 40.36 75.8699 38.93V33.42H78.8399Z" fill="#394149"/>
<path d="M96.18 37.3199V43.4999H93.18V37.58C93.18 36.58 92.69 35.9199 91.73 35.9199C90.77 35.9199 90.15 36.6299 90.15 37.8199V43.4999H87.15V37.58C87.15 36.58 86.67 35.9199 85.7 35.9199C84.73 35.9199 84.13 36.6299 84.13 37.8199V43.4999H81.13V33.4199H84.13V34.3499C84.4435 33.9392 84.8548 33.6134 85.3263 33.402C85.7979 33.1907 86.3148 33.1006 86.83 33.1399C87.3474 33.1148 87.8626 33.2241 88.3252 33.4572C88.7878 33.6903 89.1822 34.0392 89.47 34.47C89.8047 34.0196 90.248 33.6614 90.7587 33.4288C91.2693 33.1962 91.8306 33.0968 92.39 33.1399C94.67 33.1399 96.18 34.7999 96.18 37.3199Z" fill="#394149"/>
<path d="M98.74 33.36C99.9771 33.36 100.98 32.3571 100.98 31.12C100.98 29.8829 99.9771 28.88 98.74 28.88C97.5029 28.88 96.5 29.8829 96.5 31.12C96.5 32.3571 97.5029 33.36 98.74 33.36Z" fill="#394149"/>
<path d="M34.74 21.1601C40.5335 21.1601 45.23 16.4635 45.23 10.6701C45.23 4.87658 40.5335 0.180054 34.74 0.180054C28.9465 0.180054 24.25 4.87658 24.25 10.6701C24.25 16.4635 28.9465 21.1601 34.74 21.1601Z" fill="#394149"/>
<path d="M58.19 21.1601C63.9834 21.1601 68.68 16.4635 68.68 10.6701C68.68 4.87658 63.9834 0.180054 58.19 0.180054C52.3965 0.180054 47.7 4.87658 47.7 10.6701C47.7 16.4635 52.3965 21.1601 58.19 21.1601Z" fill="#394149"/>
<path d="M21.7801 0.180054H0.810059V21.1501H21.7801V0.180054Z" fill="#394149"/>
</svg>
